<svg
   xmlns:osb="http://www.openswatchbook.org/uri/2009/osb"
   xmlns:dc="http://purl.org/dc/elements/1.1/"
   xmlns:cc="http://creativecommons.org/ns#"
   xmlns:rdf="http://www.w3.org/1999/02/22-rdf-syntax-ns#"
   xmlns:svg="http://www.w3.org/2000/svg"
   xmlns="http://www.w3.org/2000/svg"
   xmlns:xlink="http://www.w3.org/1999/xlink"
   xmlns:sodipodi="http://sodipodi.sourceforge.net/DTD/sodipodi-0.dtd"
   xmlns:inkscape="http://www.inkscape.org/namespaces/inkscape"
   width="369.50262mm"
   height="67.615181mm"
   viewBox="0 0 369.50263 67.615182"
   version="1.1"
   id="svg8"
   inkscape:version="1.0.2-2 (e86c870879, 2021-01-15)"
   sodipodi:docname="logo.svg"
   style="background-color:#06395a">
  <metadata
     id="metadata5">
    <rdf:RDF>
      <cc:Work
         rdf:about="">
        <dc:format>image/svg+xml</dc:format>
        <dc:type
           rdf:resource="http://purl.org/dc/dcmitype/StillImage" />
        <dc:title></dc:title>
      </cc:Work>
    </rdf:RDF>
  </metadata>
  <g
     inkscape:label="Layer 1"
     inkscape:groupmode="layer"
     id="layer1"
     transform="translate(4.5011025,-102.20774)">
    <g
       aria-label="Alex Popoutsis"
       transform="translate(2,0)"
       id="text45"
       style="font-style:normal;font-weight:normal;font-size:40px;line-height:1.25;font-family:sans-serif;opacity:1;fill:#ffffff;fill-opacity:1;stroke:#000000;stroke-width:0.264583;stroke-opacity:1">
      <path
         d="m 11.573658,148.92262 9.882812,-25.05859 h 3.847657 l 9.882812,25.05859 h -4.082031 l -2.363281,-6.26953 H 17.296314 l -2.402344,6.26953 z m 6.875,-9.16015 h 9.140625 l -4.589844,-11.97266 z"
         style="font-style:normal;font-variant:normal;font-weight:normal;font-stretch:normal;font-family:'Lucida Console';-inkscape-font-specification:'Lucida Console';fill:#ffffff;fill-opacity:1;stroke:#000000;stroke-width:0.264583;stroke-opacity:1"
         id="path3109" />
      <path
         d="M 47.003345,148.92262 V 120.9734 h -8.183593 v -2.89062 h 12.050781 v 30.83984 z"
         style="font-style:normal;font-variant:normal;font-weight:normal;font-stretch:normal;font-family:'Lucida Console';-inkscape-font-specification:'Lucida Console';fill:#ffffff;fill-opacity:1;stroke:#000000;stroke-width:0.264583;stroke-opacity:1"
         id="path3111" />
      <path
         d="m 80.98772,148.08278 q -4.003906,1.32812 -7.34375,1.32812 -5.46875,0 -8.417968,-2.8125 -2.929688,-2.8125 -2.929688,-8.04687 0,-4.94141 2.8125,-8.125 2.832031,-3.18359 7.1875,-3.18359 4.394531,0 6.464844,2.63671 2.089844,2.63672 2.089844,8.20313 v 1.23047 H 66.397877 q 0.429687,7.20703 7.773437,7.20703 3.105469,0 6.816406,-1.48438 z M 66.515064,136.42262 h 10.234375 v -0.54687 q 0,-5.74219 -4.785156,-5.74219 -2.304688,0 -3.75,1.66016 -1.425781,1.66015 -1.699219,4.6289 z"
         style="font-style:normal;font-variant:normal;font-weight:normal;font-stretch:normal;font-family:'Lucida Console';-inkscape-font-specification:'Lucida Console';fill:#ffffff;fill-opacity:1;stroke:#000000;stroke-width:0.264583;stroke-opacity:1"
         id="path3113" />
      <path
         d="m 85.460377,148.92262 7.890625,-10.72265 -7.851563,-10.48828 h 4.824219 l 5.859375,7.83203 5.371097,-7.83203 h 3.80859 l -7.207031,10.46875 8.027341,10.74218 h -4.80468 l -6.074223,-8.10547 -5.957032,8.10547 z"
         style="font-style:normal;font-variant:normal;font-weight:normal;font-stretch:normal;font-family:'Lucida Console';-inkscape-font-specification:'Lucida Console';fill:#ffffff;fill-opacity:1;stroke:#000000;stroke-width:0.264583;stroke-opacity:1"
         id="path3115" />
      <path
         d="m 136.30022,148.92262 v -25.05859 h 8.14453 q 4.35547,0 6.21094,0.78125 3.78906,1.64062 3.78906,6.32812 0,3.94532 -3.0664,6.19141 -3.04688,2.24609 -8.41797,2.24609 h -2.8125 v 9.51172 z m 3.84766,-12.40234 h 2.40234 q 7.8125,0 7.8125,-5.46875 0,-2.30469 -1.48437,-3.30078 -1.46485,-0.9961 -4.90235,-0.9961 h -3.82812 z"
         style="font-style:normal;font-variant:normal;font-weight:normal;font-stretch:normal;font-family:'Lucida Console';-inkscape-font-specification:'Lucida Console';fill:#ffffff;fill-opacity:1;stroke:#000000;stroke-width:0.264583;stroke-opacity:1"
         id="path3117" />
      <path
         d="m 167.99944,149.4109 q -4.66797,0 -7.34375,-2.94921 -2.65625,-2.96875 -2.65625,-8.14454 0,-5.15625 2.67578,-8.10546 2.67578,-2.96875 7.32422,-2.96875 4.66797,0 7.32422,2.96875 2.67578,2.94921 2.67578,8.10546 0,5.17579 -2.67578,8.14454 -2.65625,2.94921 -7.32422,2.94921 z m 0,-2.89062 q 2.77344,0 4.33594,-2.16797 1.5625,-2.16797 1.5625,-6.03516 0,-3.84765 -1.5625,-6.01562 -1.5625,-2.16797 -4.33594,-2.16797 -2.77344,0 -4.33594,2.16797 -1.5625,2.16797 -1.5625,6.01562 0,3.86719 1.5625,6.03516 1.5625,2.16797 4.33594,2.16797 z"
         style="font-style:normal;font-variant:normal;font-weight:normal;font-stretch:normal;font-family:'Lucida Console';-inkscape-font-specification:'Lucida Console';fill:#ffffff;fill-opacity:1;stroke:#000000;stroke-width:0.264583;stroke-opacity:1"
         id="path3119" />
      <path
         d="m 183.54631,156.63747 v -28.92578 h 3.84766 v 3.98437 q 2.79297,-4.45312 6.93359,-4.45312 3.61329,0 5.6836,2.79296 2.08984,2.77344 2.08984,7.57813 0,5.27344 -2.46094,8.53516 -2.46093,3.26171 -6.44531,3.26171 -3.41797,0 -5.80078,-2.89062 v 10.11719 z m 3.84766,-13.00782 q 2.67578,2.89063 5.27344,2.89063 2.53906,0 3.92578,-2.22656 1.40625,-2.2461 1.40625,-6.26953 0,-7.5 -4.47266,-7.5 -3.26172,0 -6.13281,4.0625 z"
         style="font-style:normal;font-variant:normal;font-weight:normal;font-stretch:normal;font-family:'Lucida Console';-inkscape-font-specification:'Lucida Console';fill:#ffffff;fill-opacity:1;stroke:#000000;stroke-width:0.264583;stroke-opacity:1"
         id="path3121" />
      <path
         d="m 216.20256,149.4109 q -4.66796,0 -7.34375,-2.94921 -2.65625,-2.96875 -2.65625,-8.14454 0,-5.15625 2.67579,-8.10546 2.67578,-2.96875 7.32421,-2.96875 4.66797,0 7.32422,2.96875 2.67578,2.94921 2.67578,8.10546 0,5.17579 -2.67578,8.14454 -2.65625,2.94921 -7.32422,2.94921 z m 0,-2.89062 q 2.77344,0 4.33594,-2.16797 1.5625,-2.16797 1.5625,-6.03516 0,-3.84765 -1.5625,-6.01562 -1.5625,-2.16797 -4.33594,-2.16797 -2.77343,0 -4.33593,2.16797 -1.5625,2.16797 -1.5625,6.01562 0,3.86719 1.5625,6.03516 1.5625,2.16797 4.33593,2.16797 z"
         style="font-style:normal;font-variant:normal;font-weight:normal;font-stretch:normal;font-family:'Lucida Console';-inkscape-font-specification:'Lucida Console';fill:#ffffff;fill-opacity:1;stroke:#000000;stroke-width:0.264583;stroke-opacity:1"
         id="path3123" />
      <path
         d="m 248.80022,127.71169 v 21.21093 h -3.84766 v -3.98437 q -2.65625,4.47265 -7.24609,4.47265 -6.01562,0 -6.01562,-7.1875 v -14.51171 h 3.84765 v 13.45703 q 0,2.5 0.76172,3.55468 0.76172,1.03516 2.59766,1.03516 2.89062,0 6.05468,-4.17969 v -13.86718 z"
         style="font-style:normal;font-variant:normal;font-weight:normal;font-stretch:normal;font-family:'Lucida Console';-inkscape-font-specification:'Lucida Console';fill:#ffffff;fill-opacity:1;stroke:#000000;stroke-width:0.264583;stroke-opacity:1"
         id="path3125" />
      <path
         d="m 273.87835,148.90309 q -2.89063,0.50781 -5.58594,0.50781 -4.70703,0 -6.40625,-1.67968 -1.69922,-1.69922 -1.69922,-6.40625 v -10.23438 h -5.29297 v -2.89062 h 5.29297 v -4.57032 h 3.86719 v 4.57032 h 9.39453 v 2.89062 h -9.39453 v 10.85938 q 0,1.8164 0.21484,2.5 0.23438,0.68359 0.97656,1.1914 1.32813,0.87891 3.86719,0.87891 2.40234,0 4.76563,-0.54688 z"
         style="font-style:normal;font-variant:normal;font-weight:normal;font-stretch:normal;font-family:'Lucida Console';-inkscape-font-specification:'Lucida Console';fill:#ffffff;fill-opacity:1;stroke:#000000;stroke-width:0.264583;stroke-opacity:1"
         id="path3127" />
      <path
         d="m 280.10881,148.06325 v -3.47656 q 4.47266,1.93359 7.73438,1.93359 2.34375,0 3.86719,-0.9375 1.54297,-0.95703 1.54297,-2.40234 0,-1.85547 -3.65235,-3.02735 l -4.12109,-1.34765 q -4.82422,-1.5625 -4.82422,-5.50782 0,-2.89062 2.16797,-4.47265 2.1875,-1.58203 6.17187,-1.58203 2.98828,0 6.9336,0.91796 v 3.125 q -3.8086,-1.15234 -6.95313,-1.15234 -2.10937,0 -3.3789,0.76172 -1.25,0.76172 -1.25,2.05078 0,1.58203 2.87109,2.57813 l 4.86328,1.69921 q 2.65625,0.9375 3.80859,2.2461 1.17188,1.28906 1.17188,3.35937 0,3.00782 -2.48047,4.80469 -2.48047,1.77734 -6.66016,1.77734 -3.65234,0 -7.8125,-1.34765 z"
         style="font-style:normal;font-variant:normal;font-weight:normal;font-stretch:normal;font-family:'Lucida Console';-inkscape-font-specification:'Lucida Console';fill:#ffffff;fill-opacity:1;stroke:#000000;stroke-width:0.264583;stroke-opacity:1"
         id="path3129" />
      <path
         d="m 311.65178,148.92262 v -18.32031 h -7.71484 v -2.89062 h 11.5625 v 21.21093 z M 311.1635,122.907 v -4.82422 h 4.82422 v 4.82422 z"
         style="font-style:normal;font-variant:normal;font-weight:normal;font-stretch:normal;font-family:'Lucida Console';-inkscape-font-specification:'Lucida Console';fill:#ffffff;fill-opacity:1;stroke:#000000;stroke-width:0.264583;stroke-opacity:1"
         id="path3131" />
      <path
         d="m 328.31194,148.06325 v -3.47656 q 4.47266,1.93359 7.73437,1.93359 2.34375,0 3.86719,-0.9375 1.54297,-0.95703 1.54297,-2.40234 0,-1.85547 -3.65234,-3.02735 l -4.1211,-1.34765 q -4.82422,-1.5625 -4.82422,-5.50782 0,-2.89062 2.16797,-4.47265 2.1875,-1.58203 6.17188,-1.58203 2.98828,0 6.93359,0.91796 v 3.125 q -3.80859,-1.15234 -6.95312,-1.15234 -2.10938,0 -3.37891,0.76172 -1.25,0.76172 -1.25,2.05078 0,1.58203 2.87109,2.57813 l 4.86329,1.69921 q 2.65625,0.9375 3.80859,2.2461 1.17187,1.28906 1.17187,3.35937 0,3.00782 -2.48046,4.80469 -2.48047,1.77734 -6.66016,1.77734 -3.65234,0 -7.8125,-1.34765 z"
         style="font-style:normal;font-variant:normal;font-weight:normal;font-stretch:normal;font-family:'Lucida Console';-inkscape-font-specification:'Lucida Console';fill:#ffffff;fill-opacity:1;stroke:#000000;stroke-width:0.264583;stroke-opacity:1"
         id="path3133" />
    </g>
    <g
       aria-label="{"
       transform="matrix(0.7401871,0,0,1.3359766,-5.1553882e-4,1.1572314)"
       id="text61"
       style="font-style:normal;font-weight:normal;font-size:54.0474px;line-height:1.25;font-family:sans-serif;mix-blend-mode:normal;fill:#ffffff;fill-opacity:1;stroke:#000000;stroke-width:0.357;stroke-miterlimit:4;stroke-dasharray:none;stroke-opacity:1">
      <path
         d="m 15.787966,76.202528 v 3.90577 h -2.084837 q -3.9321591,0 -5.5419694,0.976442 -1.6098103,0.950052 -1.6098103,3.325182 0,0.870881 0.2639033,2.42791 l 0.6069777,3.668257 q 0.316684,1.847323 0.316684,3.061278 0,5.673922 -5.2252859,7.362903 5.1988956,1.71537 5.1988956,7.46846 0,1.18757 -0.2902937,2.98211 l -0.6069777,3.64187 q -0.2639033,1.58342 -0.2639033,2.4543 0,2.37513 1.6098103,3.32518 1.6098103,0.97644 5.5419694,0.97644 h 2.084837 v 3.90577 H 12.91142 q -5.3836284,0 -8.2601746,-1.95288 -2.850156,-1.95289 -2.850156,-5.64753 0,-1.58342 0.3694647,-3.5627 l 0.8972713,-4.69748 q 0.1847323,-1.05561 0.1847323,-2.08483 0,-4.85583 -5.9114345,-4.85583 h -2.4015203 v -3.905764 h 2.4015203 q 5.9114345,0 5.9114345,-4.829431 0,-1.029223 -0.1847323,-2.084837 L 2.1705541,87.365639 q -0.3694647,-1.979275 -0.3694647,-3.562695 0,-7.600416 11.1103306,-7.600416 z"
         style="font-style:normal;font-variant:normal;font-weight:normal;font-stretch:normal;font-family:'Lucida Console';-inkscape-font-specification:'Lucida Console';fill:#ffffff;fill-opacity:1;stroke:#000000;stroke-width:0.357;stroke-miterlimit:4;stroke-dasharray:none;stroke-opacity:1"
         id="path3136" />
    </g>
    <g
       aria-label="}"
       transform="matrix(0.74009099,0,0,1.3254186,0,1.9634845)"
       id="text65"
       style="font-style:normal;font-weight:normal;font-size:54.0474px;line-height:1.25;font-family:sans-serif;fill:#ffffff;fill-opacity:1;stroke:#000000;stroke-width:0.3575;stroke-opacity:1">
      <path
         d="m 472.33628,125.6844 v -3.90577 h 2.05845 q 3.95855,0 5.56836,-0.97644 1.60981,-0.95005 1.60981,-3.32518 0,-0.87088 -0.26391,-2.4543 l -0.60697,-3.64187 q -0.31669,-1.84732 -0.31669,-3.06128 0,-5.67392 5.1989,-7.38929 -5.1989,-1.688981 -5.1989,-7.389293 0,-1.187565 0.31669,-3.034888 l 0.60697,-3.668257 q 0.26391,-1.557029 0.26391,-2.42791 0,-2.37513 -1.6362,-3.325182 -1.60981,-0.976442 -5.54197,-0.976442 h -2.05845 v -3.90577 h 2.85016 q 5.41002,0 8.26017,1.952885 2.85016,1.952885 2.85016,5.647531 0,1.58342 -0.36947,3.562695 l -0.87088,4.697479 q -0.21112,1.055614 -0.21112,2.084837 0,4.829431 5.93782,4.829431 h 2.40152 v 3.905764 h -2.40152 q -5.93782,0 -5.93782,4.85583 0,1.02922 0.21112,2.08483 l 0.87088,4.69748 q 0.36947,1.95289 0.36947,3.5627 0,7.60041 -11.11033,7.60041 z"
         style="font-style:normal;font-variant:normal;font-weight:normal;font-stretch:normal;font-family:'Lucida Console';-inkscape-font-specification:'Lucida Console';fill:#ffffff;fill-opacity:1;stroke:#000000;stroke-width:0.3575;stroke-opacity:1"
         id="path3139" />
    </g>
  </g>
</svg>
